Recursive-Sans Linear ExtraBold Italic.ufo
<glyph name="period" format="2">
  <advance width="350.0"/>
  <unicode hex="002E"/>
  <outline>
    <contour>
      <point x="202.0" y="0.0" type="curve"/>
      <point x="249.0" y="189.0" type="line" smooth="yes"/>
      <point x="251.0" y="196.0"/>
      <point x="248.0" y="200.0"/>
      <point x="241.0" y="200.0" type="curve" smooth="yes"/>
      <point x="178.0" y="200.0"/>
      <point x="125.0" y="200.0"/>
      <point x="62.0" y="200.0" type="curve"/>
      <point x="15.0" y="11.0" type="line" smooth="yes"/>
      <point x="13.0" y="4.0"/>
      <point x="16.0" y="0.0"/>
      <point x="23.0" y="0.0" type="curve" smooth="yes"/>
      <point x="86.0" y="0.0"/>
      <point x="139.0" y="0.0"/>
    </contour>
  </outline>
</glyph>
<glyph name="Q" format="2">
  <advance width="650.0"/>
  <unicode hex="0051"/>
  <outline>
    <contour>
      <point x="463.0" y="98.0" type="curve"/>
      <point x="306.0" y="69.0" type="line"/>
      <point x="323.0" y="20.0"/>
      <point x="342.0" y="-30.0"/>
      <point x="360.0" y="-79.0" type="curve" smooth="yes"/>
      <point x="384.0" y="-143.0"/>
      <point x="408.0" y="-160.0"/>
      <point x="473.0" y="-160.0" type="curve" smooth="yes"/>
      <point x="487.0" y="-160.0"/>
      <point x="497.0" y="-160.0"/>
      <point x="501.0" y="-160.0" type="curve" smooth="yes"/>
      <point x="508.0" y="-160.0"/>
      <point x="513.0" y="-156.0"/>
      <point x="515.0" y="-149.0" type="curve" smooth="yes"/>
      <point x="525.0" y="-106.0"/>
      <point x="539.0" y="-51.0"/>
      <point x="550.0" y="-8.0" type="curve"/>
      <point x="530.0" y="-8.0" type="line"/>
      <point x="525.0" y="-8.0"/>
      <point x="522.0" y="-8.0"/>
      <point x="517.0" y="-8.0" type="curve" smooth="yes"/>
      <point x="503.0" y="-8.0"/>
      <point x="496.0" y="-6.0"/>
      <point x="491.0" y="11.0" type="curve"/>
      <point x="482.0" y="40.0"/>
      <point x="472.0" y="69.0"/>
    </contour>
    <component base="O"/>
  </outline>
</glyph>
<glyph name="V" format="2">
  <advance width="650.0"/>
  <unicode hex="0056"/>
  <outline>
    <contour>
      <point x="281.0" y="700.0" type="curve"/>
      <point x="233.0" y="700.0"/>
      <point x="190.0" y="700.0"/>
      <point x="142.0" y="700.0" type="curve"/>
      <point x="141.0" y="667.0"/>
      <point x="141.0" y="634.0"/>
      <point x="140.0" y="600.0" type="curve" smooth="yes"/>
      <point x="137.0" y="404.0"/>
      <point x="132.0" y="36.0"/>
      <point x="132.0" y="12.0" type="curve" smooth="yes"/>
      <point x="132.0" y="2.0"/>
      <point x="136.0" y="0.0"/>
      <point x="143.0" y="0.0" type="curve" smooth="yes"/>
      <point x="219.0" y="0.0"/>
      <point x="306.0" y="0.0"/>
      <point x="382.0" y="0.0" type="curve"/>
      <point x="493.0" y="228.0"/>
      <point x="707.0" y="664.0"/>
      <point x="717.0" y="683.0" type="curve"/>
      <point x="722.0" y="693.0"/>
      <point x="720.0" y="700.0"/>
      <point x="709.0" y="700.0" type="curve"/>
      <point x="663.0" y="700.0"/>
      <point x="611.0" y="700.0"/>
      <point x="565.0" y="700.0" type="curve"/>
      <point x="471.0" y="503.0"/>
      <point x="391.0" y="340.0"/>
      <point x="279.0" y="106.0" type="curve"/>
      <point x="317.0" y="135.0" type="line"/>
      <point x="247.0" y="135.0" type="line"/>
      <point x="272.0" y="106.0" type="line"/>
      <point x="280.0" y="345.0"/>
      <point x="290.0" y="660.0"/>
      <point x="292.0" y="686.0" type="curve"/>
      <point x="293.0" y="695.0"/>
      <point x="289.0" y="700.0"/>
    </contour>
  </outline>
</glyph>
<glyph name="m" format="2">
  <advance width="850.0"/>
  <unicode hex="006D"/>
  <outline>
    <contour>
      <point x="145.0" y="540.0" type="curve"/>
      <point x="137.0" y="507.0"/>
      <point x="128.0" y="473.0"/>
      <point x="120.0" y="440.0" type="curve" smooth="yes"/>
      <point x="84.0" y="297.0"/>
      <point x="48.0" y="154.0"/>
      <point x="13.0" y="11.0" type="curve" smooth="yes"/>
      <point x="11.0" y="5.0"/>
      <point x="15.0" y="0.0"/>
      <point x="21.0" y="0.0" type="curve" smooth="yes"/>
      <point x="62.0" y="0.0"/>
      <point x="128.0" y="0.0"/>
      <point x="169.0" y="0.0" type="curve"/>
      <point x="204.0" y="139.0"/>
      <point x="239.0" y="279.0"/>
      <point x="274.0" y="418.0" type="curve"/>
      <point x="274.0" y="419.0"/>
      <point x="265.0" y="540.0"/>
      <point x="264.0" y="540.0" type="curve"/>
      <point x="233.0" y="540.0"/>
      <point x="176.0" y="540.0"/>
    </contour>
    <contour>
      <point x="455.0" y="552.0" type="curve" smooth="yes"/>
      <point x="391.0" y="552.0"/>
      <point x="337.0" y="514.0"/>
      <point x="297.0" y="454.0" type="curve"/>
      <point x="223.0" y="454.0" type="line"/>
      <point x="237.0" y="311.0" type="line"/>
      <point x="284.0" y="375.0"/>
      <point x="322.0" y="396.0"/>
      <point x="355.0" y="396.0" type="curve" smooth="yes"/>
      <point x="379.0" y="396.0"/>
      <point x="389.0" y="385.0"/>
      <point x="378.0" y="344.0" type="curve" smooth="yes"/>
      <point x="354.0" y="253.0"/>
      <point x="323.0" y="132.0"/>
      <point x="293.0" y="11.0" type="curve" smooth="yes"/>
      <point x="291.0" y="5.0"/>
      <point x="295.0" y="0.0"/>
      <point x="301.0" y="0.0" type="curve" smooth="yes"/>
      <point x="336.0" y="0.0"/>
      <point x="417.0" y="0.0"/>
      <point x="452.0" y="0.0" type="curve"/>
      <point x="512.0" y="241.0"/>
      <point x="547.0" y="377.0"/>
      <point x="551.0" y="394.0" type="curve" smooth="yes"/>
      <point x="575.0" y="499.0"/>
      <point x="535.0" y="552.0"/>
    </contour>
    <contour>
      <point x="733.0" y="552.0" type="curve" smooth="yes"/>
      <point x="663.0" y="552.0"/>
      <point x="618.0" y="511.0"/>
      <point x="585.0" y="454.0" type="curve"/>
      <point x="513.0" y="454.0" type="line"/>
      <point x="516.0" y="321.0" type="line"/>
      <point x="568.0" y="377.0"/>
      <point x="602.0" y="396.0"/>
      <point x="637.0" y="396.0" type="curve" smooth="yes"/>
      <point x="661.0" y="396.0"/>
      <point x="674.0" y="385.0"/>
      <point x="663.0" y="344.0" type="curve"/>
      <point x="646.0" y="281.0"/>
      <point x="625.0" y="197.0"/>
      <point x="603.0" y="113.0" type="curve"/>
      <point x="588.0" y="55.0"/>
      <point x="604.0" y="0.0"/>
      <point x="691.0" y="0.0" type="curve" smooth="yes"/>
      <point x="713.0" y="0.0"/>
      <point x="740.0" y="0.0"/>
      <point x="755.0" y="0.0" type="curve" smooth="yes"/>
      <point x="762.0" y="0.0"/>
      <point x="767.0" y="4.0"/>
      <point x="769.0" y="11.0" type="curve" smooth="yes"/>
      <point x="778.0" y="50.0"/>
      <point x="788.0" y="88.0"/>
      <point x="798.0" y="127.0" type="curve"/>
      <point x="789.0" y="127.0" type="line"/>
      <point x="786.0" y="127.0"/>
      <point x="783.0" y="127.0"/>
      <point x="780.0" y="127.0" type="curve" smooth="yes"/>
      <point x="776.0" y="127.0"/>
      <point x="773.0" y="128.0"/>
      <point x="771.0" y="130.0" type="curve" smooth="yes"/>
      <point x="769.0" y="132.0"/>
      <point x="769.0" y="134.0"/>
      <point x="770.0" y="138.0" type="curve"/>
      <point x="794.0" y="235.0"/>
      <point x="820.0" y="333.0"/>
      <point x="832.0" y="380.0" type="curve" smooth="yes"/>
      <point x="862.0" y="500.0"/>
      <point x="812.0" y="552.0"/>
    </contour>
  </outline>
</glyph>
<glyph name="r" format="2">
  <advance width="450.0"/>
  <unicode hex="0072"/>
  <anchor x="371.0" y="551.0" name="top"/>
  <anchor x="94.0" y="-1.0" name="bottom"/>
  <outline>
    <contour>
      <point x="273.0" y="452.0" type="line"/>
      <point x="233.0" y="292.0" type="line"/>
      <point x="290.0" y="373.0"/>
      <point x="343.0" y="396.0"/>
      <point x="392.0" y="396.0" type="curve" smooth="yes"/>
      <point x="414.0" y="396.0"/>
      <point x="428.0" y="393.0"/>
      <point x="445.0" y="386.0" type="curve"/>
      <point x="465.0" y="386.0" type="line"/>
      <point x="479.0" y="437.0"/>
      <point x="489.0" y="476.0"/>
      <point x="503.0" y="528.0" type="curve" smooth="yes"/>
      <point x="504.0" y="532.0"/>
      <point x="503.0" y="535.0"/>
      <point x="500.0" y="538.0" type="curve" smooth="yes"/>
      <point x="494.0" y="544.0"/>
      <point x="480.0" y="550.0"/>
      <point x="453.0" y="550.0" type="curve" smooth="yes"/>
      <point x="395.0" y="550.0"/>
      <point x="350.0" y="517.0"/>
      <point x="318.0" y="452.0" type="curve"/>
    </contour>
    <contour>
      <point x="184.0" y="0.0" type="curve"/>
      <point x="228.0" y="176.0"/>
      <point x="272.0" y="353.0"/>
      <point x="316.0" y="529.0" type="curve" smooth="yes"/>
      <point x="318.0" y="537.0"/>
      <point x="315.0" y="540.0"/>
      <point x="308.0" y="540.0" type="curve"/>
      <point x="263.0" y="540.0"/>
      <point x="200.0" y="540.0"/>
      <point x="145.0" y="540.0" type="curve"/>
      <point x="138.0" y="512.0"/>
      <point x="130.0" y="478.0"/>
      <point x="121.0" y="442.0" type="curve" smooth="yes"/>
      <point x="85.0" y="298.0"/>
      <point x="18.0" y="29.0"/>
      <point x="13.0" y="11.0" type="curve" smooth="yes"/>
      <point x="11.0" y="5.0"/>
      <point x="15.0" y="0.0"/>
      <point x="21.0" y="0.0" type="curve" smooth="yes"/>
      <point x="71.0" y="0.0"/>
      <point x="134.0" y="0.0"/>
    </contour>
  </outline>
</glyph>
<glyph name="w" format="2">
  <advance width="800.0"/>
  <unicode hex="0077"/>
  <outline>
    <contour>
      <point x="408.0" y="540.0" type="curve"/>
      <point x="382.0" y="435.0"/>
      <point x="339.0" y="267.0"/>
      <point x="312.0" y="160.0" type="curve" smooth="yes"/>
      <point x="294.0" y="86.0"/>
      <point x="316.0" y="-5.0"/>
      <point x="426.0" y="-5.0" type="curve"/>
      <point x="453.0" y="-5.0" type="line"/>
      <point x="599.0" y="-5.0"/>
      <point x="703.4363646054" y="83.7454584217"/>
      <point x="750.0" y="270.0" type="curve" smooth="yes"/>
      <point x="762.0" y="318.0" type="line" smooth="yes"/>
      <point x="787.0" y="418.0"/>
      <point x="774.0" y="511.0"/>
      <point x="749.0" y="536.0" type="curve" smooth="yes"/>
      <point x="747.0" y="538.0"/>
      <point x="743.0" y="540.0"/>
      <point x="737.0" y="540.0" type="curve" smooth="yes"/>
      <point x="696.0" y="540.0"/>
      <point x="655.0" y="540.0"/>
      <point x="614.0" y="540.0" type="curve"/>
      <point x="609.0" y="520.0" type="line"/>
      <point x="633.0" y="462.0"/>
      <point x="632.0" y="407.0"/>
      <point x="610.0" y="318.0" type="curve" smooth="yes"/>
      <point x="598.0" y="270.0" type="line" smooth="yes"/>
      <point x="575.9573457016" y="181.8293828063"/>
      <point x="532.534351145" y="125.0"/>
      <point x="470.0" y="125.0" type="curve"/>
      <point x="456.0" y="125.0" type="line"/>
      <point x="441.0" y="125.0"/>
      <point x="437.0" y="135.0"/>
      <point x="441.0" y="150.0" type="curve" smooth="yes"/>
      <point x="463.0" y="238.0"/>
      <point x="514.0" y="441.0"/>
      <point x="536.0" y="529.0" type="curve" smooth="yes"/>
      <point x="538.0" y="536.0"/>
      <point x="535.0" y="540.0"/>
      <point x="528.0" y="540.0" type="curve" smooth="yes"/>
      <point x="493.0" y="540.0"/>
      <point x="443.0" y="540.0"/>
    </contour>
    <contour>
      <point x="138.0" y="540.0" type="curve"/>
      <point x="129.0" y="502.0"/>
      <point x="120.0" y="468.0"/>
      <point x="112.0" y="437.0" type="curve" smooth="yes"/>
      <point x="67.0" y="258.0"/>
      <point x="44.0" y="164.0"/>
      <point x="4.0" y="6.0" type="curve" smooth="yes"/>
      <point x="2.0" y="-1.0"/>
      <point x="5.0" y="-5.0"/>
      <point x="12.0" y="-5.0" type="curve" smooth="yes"/>
      <point x="138.0" y="-5.0" type="line" smooth="yes"/>
      <point x="216.0" y="-5.0"/>
      <point x="255.8193647387" y="18.445016973"/>
      <point x="298.0" y="74.0" type="curve"/>
      <point x="334.0" y="74.0" type="line"/>
      <point x="334.0" y="189.0" type="line"/>
      <point x="296.4460970337" y="140.853970556"/>
      <point x="264.8780487805" y="125.0"/>
      <point x="225.0" y="125.0" type="curve" smooth="yes"/>
      <point x="193.0" y="125.0" type="line"/>
      <point x="200.0" y="152.0"/>
      <point x="206.0" y="178.0"/>
      <point x="213.0" y="204.0" type="curve" smooth="yes"/>
      <point x="240.0" y="313.0"/>
      <point x="266.0" y="417.0"/>
      <point x="294.0" y="529.0" type="curve" smooth="yes"/>
      <point x="296.0" y="536.0"/>
      <point x="293.0" y="540.0"/>
      <point x="286.0" y="540.0" type="curve" smooth="yes"/>
      <point x="245.0" y="540.0"/>
      <point x="179.0" y="540.0"/>
    </contour>
  </outline>
</glyph>
<glyph name="Ldot" format="2">
  <advance width="550.0"/>
  <unicode hex="013F"/>
  <outline>
    <contour>
      <point x="390.0" y="471.0" type="curve"/>
      <point x="355.0" y="332.0" type="line" smooth="yes"/>
      <point x="353.0" y="325.0"/>
      <point x="356.0" y="321.0"/>
      <point x="363.0" y="321.0" type="curve" smooth="yes"/>
      <point x="419.0" y="321.0"/>
      <point x="486.0" y="321.0"/>
      <point x="542.0" y="321.0" type="curve"/>
      <point x="577.0" y="460.0" type="line" smooth="yes"/>
      <point x="579.0" y="467.0"/>
      <point x="576.0" y="471.0"/>
      <point x="569.0" y="471.0" type="curve"/>
      <point x="513.0" y="471.0"/>
      <point x="446.0" y="471.0"/>
    </contour>
    <component base="L"/>
  </outline>
</glyph>
<glyph name="eng" format="2">
  <advance width="600.0"/>
  <unicode hex="014B"/>
  <outline>
    <contour>
      <point x="182.0" y="-100.0" type="curve" smooth="yes"/>
      <point x="146.0" y="-100.0"/>
      <point x="124.0" y="-96.0"/>
      <point x="92.0" y="-85.0" type="curve"/>
      <point x="72.0" y="-85.0" type="line"/>
      <point x="60.0" y="-130.0"/>
      <point x="50.0" y="-168.0"/>
      <point x="41.0" y="-201.0" type="curve" smooth="yes"/>
      <point x="38.0" y="-212.0"/>
      <point x="37.0" y="-217.0"/>
      <point x="44.0" y="-222.0" type="curve" smooth="yes"/>
      <point x="62.0" y="-235.0"/>
      <point x="110.0" y="-250.0"/>
      <point x="184.0" y="-250.0" type="curve" smooth="yes"/>
      <point x="333.0" y="-250.0"/>
      <point x="421.0" y="-195.0"/>
      <point x="470.0" y="-6.0" type="curve" smooth="yes"/>
      <point x="470.0" y="-4.0"/>
      <point x="471.0" y="-2.0"/>
      <point x="471.0" y="0.0" type="curve"/>
      <point x="315.0" y="15.0" type="line"/>
      <point x="292.0" y="-78.0"/>
      <point x="256.0" y="-100.0"/>
    </contour>
    <contour>
      <point x="464.0" y="552.0" type="curve" smooth="yes"/>
      <point x="410.0" y="552.0"/>
      <point x="351.0" y="521.0"/>
      <point x="294.0" y="454.0" type="curve"/>
      <point x="249.0" y="454.0" type="line"/>
      <point x="226.0" y="328.0" type="line"/>
      <point x="276.0" y="380.0"/>
      <point x="328.0" y="407.0"/>
      <point x="371.0" y="407.0" type="curve" smooth="yes"/>
      <point x="400.0" y="407.0"/>
      <point x="407.0" y="382.0"/>
      <point x="401.0" y="358.0" type="curve" smooth="yes"/>
      <point x="371.0" y="243.0"/>
      <point x="342.0" y="126.0"/>
      <point x="314.0" y="11.0" type="curve" smooth="yes"/>
      <point x="312.0" y="5.0"/>
      <point x="316.0" y="0.0"/>
      <point x="322.0" y="0.0" type="curve" smooth="yes"/>
      <point x="372.0" y="0.0"/>
      <point x="422.0" y="0.0"/>
      <point x="471.0" y="0.0" type="curve"/>
      <point x="479.0" y="32.0"/>
      <point x="487.0" y="64.0"/>
      <point x="496.0" y="96.0" type="curve" smooth="yes"/>
      <point x="520.0" y="194.0"/>
      <point x="545.0" y="292.0"/>
      <point x="570.0" y="390.0" type="curve" smooth="yes"/>
      <point x="593.0" y="481.0"/>
      <point x="550.0" y="552.0"/>
    </contour>
    <contour>
      <point x="286.0" y="540.0" type="curve" smooth="yes"/>
      <point x="241.0" y="540.0"/>
      <point x="192.0" y="540.0"/>
      <point x="137.0" y="540.0" type="curve"/>
      <point x="130.0" y="512.0"/>
      <point x="122.0" y="478.0"/>
      <point x="113.0" y="442.0" type="curve" smooth="yes"/>
      <point x="77.0" y="298.0"/>
      <point x="41.0" y="155.0"/>
      <point x="5.0" y="11.0" type="curve" smooth="yes"/>
      <point x="3.0" y="5.0"/>
      <point x="7.0" y="0.0"/>
      <point x="13.0" y="0.0" type="curve" smooth="yes"/>
      <point x="63.0" y="0.0"/>
      <point x="112.0" y="0.0"/>
      <point x="162.0" y="0.0" type="curve"/>
      <point x="206.0" y="176.0"/>
      <point x="250.0" y="353.0"/>
      <point x="294.0" y="529.0" type="curve" smooth="yes"/>
      <point x="296.0" y="534.0"/>
      <point x="293.0" y="540.0"/>
    </contour>
  </outline>
</glyph>
<glyph name="dotlessj" format="2">
  <advance width="350.0"/>
  <unicode hex="0237"/>
  <outline>
    <contour>
      <point x="85.0" y="540.0" type="curve"/>
      <point x="76.0" y="501.0"/>
      <point x="65.0" y="463.0"/>
      <point x="56.0" y="424.0" type="curve"/>
      <point x="54.0" y="418.0"/>
      <point x="58.0" y="413.0"/>
      <point x="64.0" y="413.0" type="curve" smooth="yes"/>
      <point x="103.640625" y="413.0"/>
      <point x="142.6666666667" y="413.0"/>
      <point x="182.0" y="413.0" type="curve"/>
      <point x="211.0" y="413.0" type="line"/>
      <point x="178.0" y="282.0"/>
      <point x="141.0" y="135.0"/>
      <point x="99.0" y="-42.0" type="curve"/>
      <point x="90.0" y="-80.0"/>
      <point x="87.0" y="-84.0"/>
      <point x="74.0" y="-84.0" type="curve"/>
      <point x="71.0" y="-84.0"/>
      <point x="67.0" y="-83.0"/>
      <point x="65.0" y="-82.0" type="curve"/>
      <point x="73.0" y="-51.0"/>
      <point x="81.0" y="-19.0"/>
      <point x="89.0" y="12.0" type="curve"/>
      <point x="94.0" y="32.0" type="line"/>
      <point x="53.9919354839" y="32.0"/>
      <point x="13.0080645161" y="32.0"/>
      <point x="-27.0" y="32.0" type="curve" smooth="yes"/>
      <point x="-35.0" y="32.0"/>
      <point x="-38.0" y="29.0"/>
      <point x="-41.0" y="21.0" type="curve" smooth="yes"/>
      <point x="-43.0" y="14.0"/>
      <point x="-73.0" y="-100.0"/>
      <point x="-89.0" y="-162.0" type="curve"/>
      <point x="-90.0" y="-165.0"/>
      <point x="-90.0" y="-168.0"/>
      <point x="-88.0" y="-171.0" type="curve" smooth="yes"/>
      <point x="-73.0" y="-190.0"/>
      <point x="-11.0" y="-210.0"/>
      <point x="35.0" y="-210.0" type="curve"/>
      <point x="158.0" y="-210.0"/>
      <point x="219.0" y="-160.0"/>
      <point x="250.0" y="-31.0" type="curve"/>
      <point x="295.0" y="155.0"/>
      <point x="345.4202805623" y="349.9368164947"/>
      <point x="391.0" y="529.0" type="curve" smooth="yes"/>
      <point x="392.0" y="535.0"/>
      <point x="388.0" y="540.0"/>
      <point x="382.0" y="540.0" type="curve" smooth="yes"/>
      <point x="282.7512562814" y="540.0"/>
      <point x="184.6449511401" y="540.0"/>
    </contour>
  </outline>
</glyph>
<glyph name="verticallinemod" format="2">
  <advance width="200.0"/>
  <unicode hex="02C8"/>
  <outline>
    <contour>
      <point x="207.0" y="437.0" type="curve"/>
      <point x="282.0" y="737.0" type="line" smooth="yes"/>
      <point x="284.0" y="746.0"/>
      <point x="281.0" y="750.0"/>
      <point x="275.0" y="750.0" type="curve" smooth="yes"/>
      <point x="224.0" y="750.0"/>
      <point x="193.0" y="750.0"/>
      <point x="154.0" y="750.0" type="curve"/>
      <point x="145.0" y="714.0"/>
      <point x="138.0" y="683.0"/>
      <point x="129.0" y="648.0" type="curve" smooth="yes"/>
      <point x="78.0" y="448.0" type="line" smooth="yes"/>
      <point x="76.0" y="441.0"/>
      <point x="82.0" y="437.0"/>
      <point x="88.0" y="437.0" type="curve" smooth="yes"/>
      <point x="129.0" y="437.0"/>
      <point x="166.0" y="437.0"/>
    </contour>
  </outline>
</glyph>
<glyph name="quoteleft" format="2">
  <advance width="350.0"/>
  <unicode hex="2018"/>
  <outline>
    <contour>
      <point x="286.0" y="750.0" type="curve" smooth="yes"/>
      <point x="281.0" y="750.0"/>
      <point x="278.0" y="749.0"/>
      <point x="274.0" y="743.0" type="curve" smooth="yes"/>
      <point x="212.0" y="639.0"/>
      <point x="152.0" y="537.0"/>
      <point x="101.0" y="450.0" type="curve" smooth="yes"/>
      <point x="96.0" y="442.0"/>
      <point x="98.0" y="437.0"/>
      <point x="106.0" y="437.0" type="curve" smooth="yes"/>
      <point x="177.0" y="437.0"/>
      <point x="219.0" y="437.0"/>
      <point x="302.0" y="437.0" type="curve"/>
      <point x="352.0" y="551.0"/>
      <point x="390.0" y="636.0"/>
      <point x="440.0" y="750.0" type="curve"/>
      <point x="402.0" y="750.0"/>
      <point x="349.0" y="750.0"/>
    </contour>
  </outline>
</glyph>
<glyph name="won" format="2">
  <advance width="600.0"/>
  <unicode hex="20A9"/>
  <outline>
    <contour>
      <point x="157.0" y="700.0" type="curve"/>
      <point x="150.0" y="669.0"/>
      <point x="146.0" y="645.0"/>
      <point x="138.0" y="600.0" type="curve" smooth="yes"/>
      <point x="110.0" y="444.0"/>
      <point x="53.0" y="124.0"/>
      <point x="35.0" y="10.0" type="curve" smooth="yes"/>
      <point x="34.0" y="4.0"/>
      <point x="37.0" y="0.0"/>
      <point x="43.0" y="0.0" type="curve" smooth="yes"/>
      <point x="51.0" y="0.0"/>
      <point x="180.0" y="0.0"/>
      <point x="190.0" y="0.0" type="curve"/>
      <point x="237.0" y="125.0"/>
      <point x="269.0" y="216.0"/>
      <point x="332.0" y="424.0" type="curve"/>
      <point x="299.0" y="399.0" type="line"/>
      <point x="368.0" y="399.0" type="line"/>
      <point x="349.0" y="424.0" type="line"/>
      <point x="307.0" y="217.0"/>
      <point x="295.0" y="124.0"/>
      <point x="280.0" y="11.0" type="curve" smooth="yes"/>
      <point x="279.0" y="4.0"/>
      <point x="282.0" y="0.0"/>
      <point x="288.0" y="0.0" type="curve" smooth="yes"/>
      <point x="298.0" y="0.0"/>
      <point x="420.0" y="0.0"/>
      <point x="430.0" y="0.0" type="curve"/>
      <point x="513.0" y="229.0"/>
      <point x="580.0" y="442.0"/>
      <point x="657.0" y="685.0" type="curve" smooth="yes"/>
      <point x="660.0" y="695.0"/>
      <point x="658.0" y="700.0"/>
      <point x="650.0" y="700.0" type="curve" smooth="yes"/>
      <point x="640.0" y="700.0"/>
      <point x="554.0" y="700.0"/>
      <point x="544.0" y="700.0" type="curve"/>
      <point x="523.0" y="630.0"/>
      <point x="462.0" y="419.0"/>
      <point x="389.0" y="127.0" type="curve"/>
      <point x="417.0" y="135.0" type="line"/>
      <point x="350.0" y="135.0" type="line"/>
      <point x="369.0" y="127.0" type="line"/>
      <point x="394.0" y="289.0"/>
      <point x="416.0" y="437.0"/>
      <point x="435.0" y="560.0" type="curve"/>
      <point x="435.0" y="567.0"/>
      <point x="430.0" y="571.0"/>
      <point x="424.0" y="571.0" type="curve" smooth="yes"/>
      <point x="403.0" y="571.0"/>
      <point x="345.0" y="571.0"/>
      <point x="319.0" y="571.0" type="curve"/>
      <point x="271.0" y="439.0"/>
      <point x="216.0" y="289.0"/>
      <point x="165.0" y="127.0" type="curve"/>
      <point x="187.0" y="135.0" type="line"/>
      <point x="120.0" y="135.0" type="line"/>
      <point x="145.0" y="127.0" type="line"/>
      <point x="218.0" y="419.0"/>
      <point x="247.0" y="563.0"/>
      <point x="270.0" y="686.0" type="curve" smooth="yes"/>
      <point x="271.0" y="695.0"/>
      <point x="268.0" y="700.0"/>
      <point x="260.0" y="700.0" type="curve"/>
      <point x="246.0" y="700.0"/>
      <point x="167.0" y="700.0"/>
    </contour>
    <contour>
      <point x="117.0" y="137.0" type="line"/>
      <point x="150.0" y="269.0" type="line"/>
      <point x="15.0" y="269.0" type="line"/>
      <point x="12.0" y="259.0"/>
      <point x="-13.0" y="158.0"/>
      <point x="-16.0" y="148.0" type="curve" smooth="yes"/>
      <point x="-17.0" y="141.0"/>
      <point x="-14.0" y="137.0"/>
      <point x="-7.0" y="137.0" type="curve" smooth="yes"/>
    </contour>
    <contour>
      <point x="308.0" y="456.0" type="curve"/>
      <point x="324.0" y="521.0" type="line"/>
      <point x="78.0" y="521.0" type="line"/>
      <point x="75.0" y="511.0"/>
      <point x="48.0" y="400.0"/>
      <point x="45.0" y="390.0" type="curve" smooth="yes"/>
      <point x="43.0" y="383.0"/>
      <point x="46.0" y="379.0"/>
      <point x="53.0" y="379.0" type="curve" smooth="yes"/>
      <point x="69.0" y="379.0"/>
      <point x="107.0" y="385.0"/>
    </contour>
    <contour>
      <point x="398.0" y="456.0" type="line"/>
      <point x="553.0" y="388.0"/>
      <point x="599.0" y="379.0"/>
      <point x="611.0" y="379.0" type="curve"/>
      <point x="614.0" y="389.0"/>
      <point x="642.0" y="500.0"/>
      <point x="644.0" y="510.0" type="curve" smooth="yes"/>
      <point x="646.0" y="517.0"/>
      <point x="643.0" y="521.0"/>
      <point x="636.0" y="521.0" type="curve"/>
      <point x="414.0" y="521.0" type="line"/>
    </contour>
    <contour>
      <point x="417.0" y="137.0" type="line"/>
      <point x="551.0" y="137.0" type="line"/>
      <point x="553.0" y="147.0"/>
      <point x="579.0" y="249.0"/>
      <point x="581.0" y="258.0" type="curve" smooth="yes"/>
      <point x="583.0" y="265.0"/>
      <point x="580.0" y="269.0"/>
      <point x="573.0" y="269.0" type="curve"/>
      <point x="450.0" y="269.0" type="line"/>
    </contour>
  </outline>
</glyph>
<glyph name="numero" format="2">
  <advance width="850.0"/>
  <unicode hex="2116"/>
  <outline>
    <contour>
      <point x="132.0" y="0.0" type="curve"/>
      <point x="146.0" y="54.0"/>
      <point x="160.0" y="109.0"/>
      <point x="173.0" y="163.0" type="curve"/>
      <point x="189.0" y="231.0"/>
      <point x="202.0" y="309.0"/>
      <point x="223.0" y="480.0" type="curve"/>
      <point x="202.0" y="470.0" type="line"/>
      <point x="275.0" y="470.0" type="line"/>
      <point x="239.0" y="483.0" type="line"/>
      <point x="284.0" y="327.0"/>
      <point x="338.0" y="166.0"/>
      <point x="392.0" y="8.0" type="curve" smooth="yes"/>
      <point x="394.0" y="1.0"/>
      <point x="397.0" y="0.0"/>
      <point x="401.0" y="0.0" type="curve" smooth="yes"/>
      <point x="443.0" y="0.0"/>
      <point x="491.0" y="0.0"/>
      <point x="532.0" y="0.0" type="curve"/>
      <point x="540.0" y="33.0"/>
      <point x="549.0" y="67.0"/>
      <point x="557.0" y="100.0" type="curve"/>
      <point x="606.0" y="296.0"/>
      <point x="655.0" y="493.0"/>
      <point x="704.0" y="689.0" type="curve"/>
      <point x="706.0" y="695.0"/>
      <point x="702.0" y="700.0"/>
      <point x="696.0" y="700.0" type="curve"/>
      <point x="650.0" y="700.0"/>
      <point x="603.0" y="700.0"/>
      <point x="557.0" y="700.0" type="curve"/>
      <point x="545.0" y="651.0"/>
      <point x="533.0" y="603.0"/>
      <point x="521.0" y="554.0" type="curve"/>
      <point x="498.0" y="464.0"/>
      <point x="485.0" y="416.0"/>
      <point x="473.0" y="213.0" type="curve"/>
      <point x="496.0" y="223.0" type="line"/>
      <point x="426.0" y="223.0" type="line"/>
      <point x="461.0" y="197.0" type="line"/>
      <point x="393.0" y="410.0"/>
      <point x="341.0" y="564.0"/>
      <point x="298.0" y="690.0" type="curve" smooth="yes"/>
      <point x="295.0" y="699.0"/>
      <point x="295.0" y="700.0"/>
      <point x="283.0" y="700.0" type="curve" smooth="yes"/>
      <point x="238.0" y="700.0"/>
      <point x="202.0" y="700.0"/>
      <point x="157.0" y="700.0" type="curve"/>
      <point x="149.0" y="667.0"/>
      <point x="140.0" y="633.0"/>
      <point x="132.0" y="600.0" type="curve"/>
      <point x="83.0" y="404.0"/>
      <point x="34.0" y="207.0"/>
      <point x="-15.0" y="11.0" type="curve"/>
      <point x="-17.0" y="5.0"/>
      <point x="-13.0" y="0.0"/>
      <point x="-7.0" y="0.0" type="curve"/>
      <point x="39.0" y="0.0"/>
      <point x="86.0" y="0.0"/>
    </contour>
    <contour>
      <point x="857.0" y="713.0" type="curve" smooth="yes"/>
      <point x="782.0" y="713.0"/>
      <point x="736.0" y="675.0"/>
      <point x="715.0" y="593.0" type="curve" smooth="yes"/>
      <point x="707.0" y="561.0" type="line" smooth="yes"/>
      <point x="688.0" y="487.0"/>
      <point x="716.0" y="438.0"/>
      <point x="799.0" y="438.0" type="curve" smooth="yes"/>
      <point x="874.0" y="438.0"/>
      <point x="919.0" y="472.0"/>
      <point x="941.0" y="561.0" type="curve" smooth="yes"/>
      <point x="949.0" y="593.0" type="line" smooth="yes"/>
      <point x="968.0" y="667.0"/>
      <point x="945.0" y="713.0"/>
    </contour>
    <contour>
      <point x="841.0" y="630.0" type="curve" smooth="yes"/>
      <point x="857.0" y="630.0"/>
      <point x="867.0" y="627.0"/>
      <point x="872.0" y="620.0" type="curve"/>
      <point x="877.0" y="613.0"/>
      <point x="875.0" y="603.0"/>
      <point x="871.0" y="589.0" type="curve" smooth="yes"/>
      <point x="863.0" y="562.0" type="line" smooth="yes"/>
      <point x="855.0" y="534.0"/>
      <point x="840.0" y="521.0"/>
      <point x="814.0" y="521.0" type="curve" smooth="yes"/>
      <point x="797.0" y="521.0"/>
      <point x="789.0" y="525.0"/>
      <point x="785.0" y="531.0" type="curve"/>
      <point x="781.0" y="537.0"/>
      <point x="781.0" y="547.0"/>
      <point x="785.0" y="562.0" type="curve" smooth="yes"/>
      <point x="793.0" y="589.0" type="line" smooth="yes"/>
      <point x="802.0" y="619.0"/>
      <point x="817.0" y="630.0"/>
    </contour>
    <contour>
      <point x="674.0" y="409.0" type="line"/>
      <point x="664.0" y="370.0"/>
      <point x="656.0" y="336.0"/>
      <point x="646.0" y="297.0" type="curve" smooth="yes"/>
      <point x="644.0" y="290.0"/>
      <point x="647.0" y="286.0"/>
      <point x="654.0" y="286.0" type="curve" smooth="yes"/>
      <point x="870.0" y="286.0" type="line"/>
      <point x="880.0" y="325.0"/>
      <point x="889.0" y="359.0"/>
      <point x="898.0" y="398.0" type="curve" smooth="yes"/>
      <point x="900.0" y="405.0"/>
      <point x="897.0" y="409.0"/>
      <point x="890.0" y="409.0" type="curve" smooth="yes"/>
    </contour>
  </outline>
</glyph>
<glyph name="arrowNW" format="2">
  <advance width="600.0"/>
  <unicode hex="2196"/>
  <outline>
    <contour>
      <point x="257.0" y="450.0" type="curve"/>
      <point x="247.0" y="443.0"/>
      <point x="226.0" y="430.0"/>
      <point x="219.0" y="424.0" type="curve" smooth="yes"/>
      <point x="211.0" y="418.0"/>
      <point x="209.0" y="413.0"/>
      <point x="212.0" y="406.0" type="curve" smooth="yes"/>
      <point x="241.0" y="340.0"/>
      <point x="277.0" y="249.0"/>
      <point x="279.0" y="246.0" type="curve" smooth="yes"/>
      <point x="324.0" y="185.0"/>
      <point x="382.0" y="110.0"/>
      <point x="424.0" y="55.0" type="curve"/>
      <point x="454.0" y="75.0"/>
      <point x="485.0" y="96.0"/>
      <point x="515.0" y="118.0" type="curve" smooth="yes"/>
      <point x="532.0" y="130.0"/>
      <point x="538.0" y="146.0"/>
      <point x="528.0" y="160.0" type="curve" smooth="yes"/>
      <point x="489.0" y="214.0"/>
      <point x="440.0" y="278.0"/>
      <point x="402.0" y="330.0" type="curve" smooth="yes"/>
      <point x="399.0" y="334.0"/>
      <point x="330.0" y="390.0"/>
    </contour>
    <contour>
      <point x="200.0" y="627.0" type="curve"/>
      <point x="100.0" y="555.0" type="line" smooth="yes"/>
      <point x="85.0" y="545.0"/>
      <point x="81.0" y="536.0"/>
      <point x="78.0" y="518.0" type="curve" smooth="yes"/>
      <point x="59.0" y="397.0"/>
      <point x="37.0" y="267.0"/>
      <point x="20.0" y="163.0" type="curve" smooth="yes"/>
      <point x="18.0" y="145.0"/>
      <point x="22.0" y="141.0"/>
      <point x="40.0" y="141.0" type="curve" smooth="yes"/>
      <point x="75.0" y="141.0"/>
      <point x="116.0" y="141.0"/>
      <point x="152.0" y="141.0" type="curve"/>
      <point x="172.0" y="355.0"/>
      <point x="173.0" y="442.0"/>
      <point x="175.0" y="534.0" type="curve"/>
      <point x="153.0" y="489.0" type="line"/>
      <point x="219.0" y="537.0" type="line"/>
      <point x="171.0" y="531.0" type="line"/>
      <point x="253.0" y="499.0"/>
      <point x="367.0" y="462.0"/>
      <point x="559.0" y="411.0" type="curve"/>
      <point x="570.0" y="455.0"/>
      <point x="577.0" y="485.0"/>
      <point x="586.0" y="519.0" type="curve" smooth="yes"/>
      <point x="590.0" y="536.0"/>
      <point x="589.0" y="542.0"/>
      <point x="572.0" y="546.0" type="curve" smooth="yes"/>
      <point x="454.0" y="572.0"/>
      <point x="315.0" y="601.0"/>
    </contour>
  </outline>
</glyph>
<glyph name="product" format="2">
  <advance width="600.0"/>
  <unicode hex="220F"/>
  <outline>
    <contour>
      <point x="157.0" y="700.0" type="line"/>
      <point x="146.0" y="657.0"/>
      <point x="136.0" y="616.0"/>
      <point x="125.0" y="573.0" type="curve" smooth="yes"/>
      <point x="123.0" y="566.0"/>
      <point x="126.0" y="562.0"/>
      <point x="133.0" y="562.0" type="curve" smooth="yes"/>
      <point x="622.0" y="562.0" type="line"/>
      <point x="633.0" y="605.0"/>
      <point x="643.0" y="646.0"/>
      <point x="654.0" y="689.0" type="curve" smooth="yes"/>
      <point x="656.0" y="696.0"/>
      <point x="653.0" y="700.0"/>
      <point x="646.0" y="700.0" type="curve"/>
    </contour>
    <contour>
      <point x="174.0" y="604.0" type="line"/>
      <point x="125.0" y="408.0"/>
      <point x="74.0" y="207.0"/>
      <point x="25.0" y="11.0" type="curve" smooth="yes"/>
      <point x="23.0" y="4.0"/>
      <point x="26.0" y="0.0"/>
      <point x="33.0" y="0.0" type="curve" smooth="yes"/>
      <point x="83.0" y="0.0"/>
      <point x="132.0" y="0.0"/>
      <point x="182.0" y="0.0" type="curve"/>
      <point x="227.0" y="177.0"/>
      <point x="272.0" y="358.0"/>
      <point x="316.0" y="535.0" type="curve" smooth="yes"/>
      <point x="321.0" y="552.0"/>
      <point x="326.0" y="574.0"/>
      <point x="334.0" y="604.0" type="curve"/>
      <point x="242.0" y="604.0" type="line"/>
    </contour>
    <contour>
      <point x="434.0" y="604.0" type="line"/>
      <point x="385.0" y="408.0"/>
      <point x="334.0" y="207.0"/>
      <point x="285.0" y="11.0" type="curve" smooth="yes"/>
      <point x="283.0" y="4.0"/>
      <point x="286.0" y="0.0"/>
      <point x="293.0" y="0.0" type="curve" smooth="yes"/>
      <point x="343.0" y="0.0"/>
      <point x="392.0" y="0.0"/>
      <point x="442.0" y="0.0" type="curve"/>
      <point x="451.0" y="33.0"/>
      <point x="459.0" y="67.0"/>
      <point x="467.0" y="100.0" type="curve" smooth="yes"/>
      <point x="504.0" y="247.0"/>
      <point x="542.0" y="397.0"/>
      <point x="579.0" y="544.0" type="curve" smooth="yes"/>
      <point x="584.0" y="564.0"/>
      <point x="589.0" y="584.0"/>
      <point x="594.0" y="604.0" type="curve"/>
      <point x="499.0" y="604.0" type="line"/>
    </contour>
  </outline>
</glyph>
<glyph name="equivalence" format="2">
  <advance width="600.0"/>
  <unicode hex="2261"/>
  <outline>
    <contour>
      <point x="145.0" y="614.0" type="line"/>
      <point x="134.0" y="568.0"/>
      <point x="124.0" y="529.0"/>
      <point x="113.0" y="483.0" type="curve" smooth="yes"/>
      <point x="111.0" y="476.0"/>
      <point x="114.0" y="472.0"/>
      <point x="121.0" y="472.0" type="curve" smooth="yes"/>
      <point x="590.0" y="472.0" type="line"/>
      <point x="601.0" y="518.0"/>
      <point x="611.0" y="557.0"/>
      <point x="623.0" y="603.0" type="curve" smooth="yes"/>
      <point x="624.0" y="610.0"/>
      <point x="621.0" y="614.0"/>
      <point x="614.0" y="614.0" type="curve"/>
    </contour>
    <contour>
      <point x="85.0" y="372.0" type="line"/>
      <point x="73.0" y="326.0"/>
      <point x="63.0" y="287.0"/>
      <point x="52.0" y="241.0" type="curve" smooth="yes"/>
      <point x="50.0" y="234.0"/>
      <point x="53.0" y="230.0"/>
      <point x="60.0" y="230.0" type="curve" smooth="yes"/>
      <point x="529.0" y="230.0" type="line"/>
      <point x="541.0" y="276.0"/>
      <point x="551.0" y="315.0"/>
      <point x="562.0" y="361.0" type="curve" smooth="yes"/>
      <point x="564.0" y="368.0"/>
      <point x="561.0" y="372.0"/>
      <point x="554.0" y="372.0" type="curve"/>
    </contour>
    <contour>
      <point x="24.0" y="130.0" type="line"/>
      <point x="13.0" y="84.0"/>
      <point x="3.0" y="45.0"/>
      <point x="-9.0" y="-1.0" type="curve" smooth="yes"/>
      <point x="-10.0" y="-8.0"/>
      <point x="-7.0" y="-12.0"/>
      <point x="0.0" y="-12.0" type="curve" smooth="yes"/>
      <point x="469.0" y="-12.0" type="line"/>
      <point x="480.0" y="34.0"/>
      <point x="490.0" y="73.0"/>
      <point x="501.0" y="119.0" type="curve" smooth="yes"/>
      <point x="503.0" y="126.0"/>
      <point x="500.0" y="130.0"/>
      <point x="493.0" y="130.0" type="curve"/>
    </contour>
  </outline>
</glyph>
<glyph name="f_f_i" format="2">
  <advance width="1100.0"/>
  <unicode hex="FB03"/>
  <outline>
    <contour>
      <point x="200.0" y="11.0" type="curve"/>
      <point x="234.0" y="147.0"/>
      <point x="302.0" y="420.0"/>
      <point x="336.0" y="556.0" type="curve" smooth="yes"/>
      <point x="345.0" y="591.0"/>
      <point x="355.0" y="613.0"/>
      <point x="370.0" y="625.0" type="curve" smooth="yes"/>
      <point x="385.0" y="636.0"/>
      <point x="404.0" y="640.0"/>
      <point x="436.0" y="640.0" type="curve" smooth="yes"/>
      <point x="472.0" y="640.0"/>
      <point x="491.0" y="634.0"/>
      <point x="530.0" y="625.0" type="curve"/>
      <point x="550.0" y="625.0" type="line"/>
      <point x="560.0" y="664.0"/>
      <point x="570.0" y="701.0"/>
      <point x="578.0" y="734.0" type="curve"/>
      <point x="580.0" y="742.0"/>
      <point x="580.0" y="746.0"/>
      <point x="571.0" y="751.0" type="curve" smooth="yes"/>
      <point x="554.0" y="761.0"/>
      <point x="514.0" y="770.0"/>
      <point x="448.0" y="770.0" type="curve" smooth="yes"/>
      <point x="294.0" y="770.0"/>
      <point x="223.0" y="709.0"/>
      <point x="186.0" y="558.0" type="curve" smooth="yes"/>
      <point x="144.0" y="389.0"/>
      <point x="115.0" y="269.0"/>
      <point x="73.0" y="100.0" type="curve"/>
      <point x="64.0" y="67.0"/>
      <point x="56.0" y="33.0"/>
      <point x="48.0" y="0.0" type="curve"/>
      <point x="96.0" y="0.0"/>
      <point x="139.0" y="0.0"/>
      <point x="187.0" y="0.0" type="curve"/>
      <point x="193.0" y="0.0"/>
      <point x="199.0" y="5.0"/>
    </contour>
    <contour>
      <point x="568.0" y="11.0" type="curve"/>
      <point x="602.0" y="147.0"/>
      <point x="670.0" y="420.0"/>
      <point x="704.0" y="556.0" type="curve" smooth="yes"/>
      <point x="713.0" y="591.0"/>
      <point x="723.0" y="613.0"/>
      <point x="738.0" y="625.0" type="curve" smooth="yes"/>
      <point x="753.0" y="636.0"/>
      <point x="766.0" y="640.0"/>
      <point x="787.0" y="640.0" type="curve" smooth="yes"/>
      <point x="814.0" y="640.0"/>
      <point x="841.0" y="635.0"/>
      <point x="872.0" y="625.0" type="curve"/>
      <point x="892.0" y="625.0" type="line"/>
      <point x="902.0" y="664.0"/>
      <point x="912.0" y="701.0"/>
      <point x="920.0" y="734.0" type="curve"/>
      <point x="922.0" y="742.0"/>
      <point x="922.0" y="746.0"/>
      <point x="913.0" y="751.0" type="curve" smooth="yes"/>
      <point x="899.0" y="759.0"/>
      <point x="854.0" y="770.0"/>
      <point x="795.0" y="770.0" type="curve" smooth="yes"/>
      <point x="662.0" y="770.0"/>
      <point x="592.0" y="712.0"/>
      <point x="554.0" y="558.0" type="curve" smooth="yes"/>
      <point x="512.0" y="389.0"/>
      <point x="483.0" y="269.0"/>
      <point x="441.0" y="100.0" type="curve"/>
      <point x="432.0" y="67.0"/>
      <point x="424.0" y="33.0"/>
      <point x="416.0" y="0.0" type="curve"/>
      <point x="464.0" y="0.0"/>
      <point x="507.0" y="0.0"/>
      <point x="555.0" y="0.0" type="curve"/>
      <point x="561.0" y="0.0"/>
      <point x="567.0" y="5.0"/>
    </contour>
    <contour>
      <point x="932.0" y="380.0" type="line"/>
      <point x="943.0" y="422.0"/>
      <point x="952.0" y="458.0"/>
      <point x="962.0" y="499.0" type="curve" smooth="yes"/>
      <point x="964.0" y="508.0"/>
      <point x="960.0" y="510.0"/>
      <point x="954.0" y="510.0" type="curve" smooth="yes"/>
      <point x="80.0" y="510.0" type="line"/>
      <point x="70.0" y="468.0"/>
      <point x="61.0" y="433.0"/>
      <point x="50.0" y="391.0" type="curve" smooth="yes"/>
      <point x="49.0" y="384.0"/>
      <point x="52.0" y="380.0"/>
      <point x="59.0" y="380.0" type="curve" smooth="yes"/>
    </contour>
    <contour>
      <point x="978.0" y="786.0" type="curve"/>
      <point x="943.0" y="647.0" type="line" smooth="yes"/>
      <point x="941.0" y="640.0"/>
      <point x="944.0" y="636.0"/>
      <point x="951.0" y="636.0" type="curve" smooth="yes"/>
      <point x="1007.0" y="636.0"/>
      <point x="1074.0" y="636.0"/>
      <point x="1130.0" y="636.0" type="curve"/>
      <point x="1165.0" y="775.0" type="line" smooth="yes"/>
      <point x="1167.0" y="782.0"/>
      <point x="1164.0" y="786.0"/>
      <point x="1157.0" y="786.0" type="curve" smooth="yes"/>
      <point x="1101.0" y="786.0"/>
      <point x="1034.0" y="786.0"/>
    </contour>
    <contour>
      <point x="922.0" y="510.0" type="curve"/>
      <point x="911.0" y="467.0"/>
      <point x="908.0" y="453.0"/>
      <point x="897.0" y="410.0" type="curve"/>
      <point x="877.0" y="329.0"/>
      <point x="819.0" y="94.0"/>
      <point x="797.0" y="11.0" type="curve" smooth="yes"/>
      <point x="795.0" y="5.0"/>
      <point x="799.0" y="0.0"/>
      <point x="805.0" y="0.0" type="curve" smooth="yes"/>
      <point x="855.0" y="0.0"/>
      <point x="904.0" y="0.0"/>
      <point x="953.0" y="0.0" type="curve"/>
      <point x="961.0" y="32.0"/>
      <point x="968.0" y="60.0"/>
      <point x="977.0" y="96.0" type="curve" smooth="yes"/>
      <point x="1008.0" y="219.0"/>
      <point x="1047.0" y="376.0"/>
      <point x="1078.0" y="499.0" type="curve" smooth="yes"/>
      <point x="1080.0" y="507.0"/>
      <point x="1076.0" y="510.0"/>
      <point x="1070.0" y="510.0" type="curve" smooth="yes"/>
      <point x="1051.0" y="510.0"/>
      <point x="948.0" y="510.0"/>
    </contour>
  </outline>
</glyph>
<glyph name="Lj.italic" format="2">
  <advance width="850.0"/>
  <outline>
    <contour>
      <point x="13.0" y="0.0" type="curve" smooth="yes"/>
      <point x="429.0" y="0.0" type="line"/>
      <point x="437.0" y="71.0"/>
      <point x="412.0" y="137.0"/>
      <point x="352.0" y="137.0" type="curve" smooth="yes"/>
      <point x="196.0" y="137.0" type="line"/>
      <point x="242.0" y="321.0"/>
      <point x="288.0" y="505.0"/>
      <point x="334.0" y="689.0" type="curve"/>
      <point x="336.0" y="695.0"/>
      <point x="333.0" y="700.0"/>
      <point x="326.0" y="700.0" type="curve" smooth="yes"/>
      <point x="276.0" y="700.0"/>
      <point x="227.0" y="700.0"/>
      <point x="177.0" y="700.0" type="curve"/>
      <point x="169.0" y="667.0"/>
      <point x="160.0" y="633.0"/>
      <point x="152.0" y="600.0" type="curve" smooth="yes"/>
      <point x="103.0" y="404.0"/>
      <point x="54.0" y="207.0"/>
      <point x="5.0" y="11.0" type="curve" smooth="yes"/>
      <point x="3.0" y="5.0"/>
      <point x="7.0" y="0.0"/>
    </contour>
    <contour>
      <point x="340.0" y="200.0" type="curve"/>
      <point x="333.0" y="176.0"/>
      <point x="327.0" y="146.0"/>
      <point x="320.0" y="121.0" type="curve" smooth="yes"/>
      <point x="298.0" y="34.0"/>
      <point x="315.0" y="12.0"/>
      <point x="429.0" y="0.0" type="curve"/>
      <point x="443.0" y="52.0"/>
      <point x="463.0" y="138.0"/>
      <point x="476.0" y="189.0" type="curve" smooth="yes"/>
      <point x="477.0" y="195.0"/>
      <point x="474.0" y="200.0"/>
      <point x="468.0" y="200.0" type="curve" smooth="yes"/>
      <point x="422.0" y="200.0"/>
      <point x="386.0" y="200.0"/>
    </contour>
    <contour>
      <point x="832.0" y="540.0" type="curve" smooth="yes"/>
      <point x="709.0" y="540.0"/>
      <point x="630.0" y="540.0"/>
      <point x="604.0" y="540.0" type="curve"/>
      <point x="593.0" y="496.0"/>
      <point x="579.0" y="441.0"/>
      <point x="568.0" y="397.0" type="curve" smooth="yes"/>
      <point x="566.0" y="391.0"/>
      <point x="570.0" y="386.0"/>
      <point x="576.0" y="386.0" type="curve" smooth="yes"/>
      <point x="590.0" y="386.0"/>
      <point x="631.0" y="386.0"/>
      <point x="642.0" y="386.0" type="curve"/>
      <point x="655.0" y="386.0" type="line"/>
      <point x="622.0" y="256.0"/>
      <point x="593.0" y="145.0"/>
      <point x="559.0" y="14.0" type="curve" smooth="yes"/>
      <point x="542.0" y="-52.0"/>
      <point x="535.0" y="-63.0"/>
      <point x="521.0" y="-77.0" type="curve"/>
      <point x="507.0" y="-91.0"/>
      <point x="492.0" y="-95.0"/>
      <point x="469.0" y="-95.0" type="curve" smooth="yes"/>
      <point x="447.0" y="-95.0"/>
      <point x="432.0" y="-92.0"/>
      <point x="417.0" y="-86.0" type="curve"/>
      <point x="397.0" y="-86.0" type="line"/>
      <point x="386.0" y="-132.0"/>
      <point x="377.0" y="-168.0"/>
      <point x="366.0" y="-211.0" type="curve" smooth="yes"/>
      <point x="364.0" y="-217.0"/>
      <point x="365.0" y="-221.0"/>
      <point x="372.0" y="-227.0" type="curve" smooth="yes"/>
      <point x="390.0" y="-241.0"/>
      <point x="418.0" y="-250.0"/>
      <point x="458.0" y="-250.0" type="curve" smooth="yes"/>
      <point x="577.0" y="-250.0"/>
      <point x="658.0" y="-195.0"/>
      <point x="701.0" y="-18.0" type="curve" smooth="yes"/>
      <point x="745.0" y="164.0"/>
      <point x="794.0" y="347.0"/>
      <point x="840.0" y="529.0" type="curve" smooth="yes"/>
      <point x="842.0" y="534.0"/>
      <point x="839.0" y="540.0"/>
    </contour>
    <contour>
      <point x="729.0" y="786.0" type="curve"/>
      <point x="694.0" y="647.0" type="line" smooth="yes"/>
      <point x="692.0" y="640.0"/>
      <point x="695.0" y="636.0"/>
      <point x="702.0" y="636.0" type="curve" smooth="yes"/>
      <point x="758.0" y="636.0"/>
      <point x="825.0" y="636.0"/>
      <point x="881.0" y="636.0" type="curve"/>
      <point x="916.0" y="775.0" type="line" smooth="yes"/>
      <point x="918.0" y="782.0"/>
      <point x="915.0" y="786.0"/>
      <point x="908.0" y="786.0" type="curve" smooth="yes"/>
      <point x="852.0" y="786.0"/>
      <point x="785.0" y="786.0"/>
    </contour>
  </outline>
</glyph>
<glyph name="Nj.italic" format="2">
  <advance width="950.0"/>
  <outline>
    <contour>
      <point x="132.0" y="0.0" type="curve"/>
      <point x="146.0" y="54.0"/>
      <point x="160.0" y="109.0"/>
      <point x="173.0" y="163.0" type="curve"/>
      <point x="189.0" y="231.0"/>
      <point x="202.0" y="309.0"/>
      <point x="223.0" y="480.0" type="curve"/>
      <point x="202.0" y="470.0" type="line"/>
      <point x="275.0" y="470.0" type="line"/>
      <point x="239.0" y="483.0" type="line"/>
      <point x="284.0" y="327.0"/>
      <point x="338.0" y="166.0"/>
      <point x="392.0" y="8.0" type="curve" smooth="yes"/>
      <point x="394.0" y="1.0"/>
      <point x="397.0" y="0.0"/>
      <point x="401.0" y="0.0" type="curve" smooth="yes"/>
      <point x="443.0" y="0.0"/>
      <point x="491.0" y="0.0"/>
      <point x="532.0" y="0.0" type="curve"/>
      <point x="540.0" y="33.0"/>
      <point x="549.0" y="67.0"/>
      <point x="557.0" y="100.0" type="curve"/>
      <point x="606.0" y="296.0"/>
      <point x="655.0" y="493.0"/>
      <point x="704.0" y="689.0" type="curve"/>
      <point x="706.0" y="695.0"/>
      <point x="702.0" y="700.0"/>
      <point x="696.0" y="700.0" type="curve"/>
      <point x="650.0" y="700.0"/>
      <point x="603.0" y="700.0"/>
      <point x="557.0" y="700.0" type="curve"/>
      <point x="545.0" y="651.0"/>
      <point x="533.0" y="603.0"/>
      <point x="521.0" y="554.0" type="curve"/>
      <point x="498.0" y="464.0"/>
      <point x="485.0" y="416.0"/>
      <point x="473.0" y="213.0" type="curve"/>
      <point x="496.0" y="223.0" type="line"/>
      <point x="426.0" y="223.0" type="line"/>
      <point x="461.0" y="197.0" type="line"/>
      <point x="393.0" y="410.0"/>
      <point x="341.0" y="564.0"/>
      <point x="298.0" y="690.0" type="curve" smooth="yes"/>
      <point x="295.0" y="699.0"/>
      <point x="295.0" y="700.0"/>
      <point x="283.0" y="700.0" type="curve" smooth="yes"/>
      <point x="238.0" y="700.0"/>
      <point x="202.0" y="700.0"/>
      <point x="157.0" y="700.0" type="curve"/>
      <point x="149.0" y="667.0"/>
      <point x="140.0" y="633.0"/>
      <point x="132.0" y="600.0" type="curve"/>
      <point x="83.0" y="404.0"/>
      <point x="34.0" y="207.0"/>
      <point x="-15.0" y="11.0" type="curve"/>
      <point x="-17.0" y="5.0"/>
      <point x="-13.0" y="0.0"/>
      <point x="-7.0" y="0.0" type="curve"/>
      <point x="39.0" y="0.0"/>
      <point x="86.0" y="0.0"/>
    </contour>
    <contour>
      <point x="952.0" y="540.0" type="curve" smooth="yes"/>
      <point x="829.0" y="540.0"/>
      <point x="750.0" y="540.0"/>
      <point x="724.0" y="540.0" type="curve"/>
      <point x="713.0" y="496.0"/>
      <point x="699.0" y="441.0"/>
      <point x="688.0" y="397.0" type="curve" smooth="yes"/>
      <point x="686.0" y="391.0"/>
      <point x="690.0" y="386.0"/>
      <point x="696.0" y="386.0" type="curve" smooth="yes"/>
      <point x="710.0" y="386.0"/>
      <point x="751.0" y="386.0"/>
      <point x="762.0" y="386.0" type="curve"/>
      <point x="775.0" y="386.0" type="line"/>
      <point x="742.0" y="256.0"/>
      <point x="713.0" y="145.0"/>
      <point x="679.0" y="14.0" type="curve" smooth="yes"/>
      <point x="662.0" y="-52.0"/>
      <point x="655.0" y="-63.0"/>
      <point x="641.0" y="-77.0" type="curve"/>
      <point x="627.0" y="-91.0"/>
      <point x="612.0" y="-95.0"/>
      <point x="589.0" y="-95.0" type="curve" smooth="yes"/>
      <point x="567.0" y="-95.0"/>
      <point x="552.0" y="-92.0"/>
      <point x="537.0" y="-86.0" type="curve"/>
      <point x="517.0" y="-86.0" type="line"/>
      <point x="506.0" y="-132.0"/>
      <point x="497.0" y="-168.0"/>
      <point x="486.0" y="-211.0" type="curve" smooth="yes"/>
      <point x="484.0" y="-217.0"/>
      <point x="485.0" y="-221.0"/>
      <point x="492.0" y="-227.0" type="curve" smooth="yes"/>
      <point x="510.0" y="-241.0"/>
      <point x="538.0" y="-250.0"/>
      <point x="578.0" y="-250.0" type="curve" smooth="yes"/>
      <point x="697.0" y="-250.0"/>
      <point x="778.0" y="-195.0"/>
      <point x="821.0" y="-18.0" type="curve" smooth="yes"/>
      <point x="865.0" y="164.0"/>
      <point x="914.0" y="347.0"/>
      <point x="960.0" y="529.0" type="curve" smooth="yes"/>
      <point x="962.0" y="534.0"/>
      <point x="959.0" y="540.0"/>
    </contour>
    <contour>
      <point x="849.0" y="786.0" type="curve"/>
      <point x="814.0" y="647.0" type="line" smooth="yes"/>
      <point x="812.0" y="640.0"/>
      <point x="815.0" y="636.0"/>
      <point x="822.0" y="636.0" type="curve" smooth="yes"/>
      <point x="878.0" y="636.0"/>
      <point x="945.0" y="636.0"/>
      <point x="1001.0" y="636.0" type="curve"/>
      <point x="1036.0" y="775.0" type="line" smooth="yes"/>
      <point x="1038.0" y="782.0"/>
      <point x="1035.0" y="786.0"/>
      <point x="1028.0" y="786.0" type="curve" smooth="yes"/>
      <point x="972.0" y="786.0"/>
      <point x="905.0" y="786.0"/>
    </contour>
  </outline>
</glyph>
<glyph name="nj.italic" format="2">
  <advance width="900.0"/>
  <outline>
    <contour>
      <point x="892.0" y="540.0" type="curve" smooth="yes"/>
      <point x="769.0" y="540.0"/>
      <point x="690.0" y="540.0"/>
      <point x="664.0" y="540.0" type="curve"/>
      <point x="653.0" y="496.0"/>
      <point x="639.0" y="441.0"/>
      <point x="628.0" y="397.0" type="curve" smooth="yes"/>
      <point x="626.0" y="391.0"/>
      <point x="630.0" y="386.0"/>
      <point x="636.0" y="386.0" type="curve" smooth="yes"/>
      <point x="650.0" y="386.0"/>
      <point x="691.0" y="386.0"/>
      <point x="702.0" y="386.0" type="curve"/>
      <point x="715.0" y="386.0" type="line"/>
      <point x="682.0" y="256.0"/>
      <point x="653.0" y="145.0"/>
      <point x="619.0" y="14.0" type="curve" smooth="yes"/>
      <point x="602.0" y="-52.0"/>
      <point x="595.0" y="-63.0"/>
      <point x="581.0" y="-77.0" type="curve"/>
      <point x="567.0" y="-91.0"/>
      <point x="552.0" y="-95.0"/>
      <point x="529.0" y="-95.0" type="curve" smooth="yes"/>
      <point x="507.0" y="-95.0"/>
      <point x="492.0" y="-92.0"/>
      <point x="477.0" y="-86.0" type="curve"/>
      <point x="457.0" y="-86.0" type="line"/>
      <point x="446.0" y="-132.0"/>
      <point x="437.0" y="-168.0"/>
      <point x="426.0" y="-211.0" type="curve" smooth="yes"/>
      <point x="424.0" y="-217.0"/>
      <point x="425.0" y="-221.0"/>
      <point x="432.0" y="-227.0" type="curve" smooth="yes"/>
      <point x="450.0" y="-241.0"/>
      <point x="478.0" y="-250.0"/>
      <point x="518.0" y="-250.0" type="curve" smooth="yes"/>
      <point x="637.0" y="-250.0"/>
      <point x="718.0" y="-195.0"/>
      <point x="761.0" y="-18.0" type="curve" smooth="yes"/>
      <point x="805.0" y="164.0"/>
      <point x="854.0" y="347.0"/>
      <point x="900.0" y="529.0" type="curve" smooth="yes"/>
      <point x="902.0" y="534.0"/>
      <point x="899.0" y="540.0"/>
    </contour>
    <contour>
      <point x="789.0" y="786.0" type="curve"/>
      <point x="754.0" y="647.0" type="line" smooth="yes"/>
      <point x="752.0" y="640.0"/>
      <point x="755.0" y="636.0"/>
      <point x="762.0" y="636.0" type="curve" smooth="yes"/>
      <point x="818.0" y="636.0"/>
      <point x="885.0" y="636.0"/>
      <point x="941.0" y="636.0" type="curve"/>
      <point x="976.0" y="775.0" type="line" smooth="yes"/>
      <point x="978.0" y="782.0"/>
      <point x="975.0" y="786.0"/>
      <point x="968.0" y="786.0" type="curve" smooth="yes"/>
      <point x="912.0" y="786.0"/>
      <point x="845.0" y="786.0"/>
    </contour>
    <contour>
      <point x="470.0" y="0.0" type="curve"/>
      <point x="478.0" y="32.0"/>
      <point x="486.0" y="64.0"/>
      <point x="495.0" y="96.0" type="curve" smooth="yes"/>
      <point x="519.0" y="194.0"/>
      <point x="544.0" y="292.0"/>
      <point x="568.0" y="390.0" type="curve" smooth="yes"/>
      <point x="592.0" y="481.0"/>
      <point x="550.0" y="552.0"/>
      <point x="464.0" y="552.0" type="curve"/>
      <point x="410.0" y="552.0"/>
      <point x="351.0" y="521.0"/>
      <point x="294.0" y="454.0" type="curve"/>
      <point x="249.0" y="454.0" type="line"/>
      <point x="226.0" y="328.0" type="line"/>
      <point x="276.0" y="380.0"/>
      <point x="328.0" y="407.0"/>
      <point x="371.0" y="407.0" type="curve" smooth="yes"/>
      <point x="400.0" y="407.0"/>
      <point x="407.0" y="382.0"/>
      <point x="401.0" y="358.0" type="curve" smooth="yes"/>
      <point x="371.0" y="243.0"/>
      <point x="342.0" y="126.0"/>
      <point x="314.0" y="11.0" type="curve" smooth="yes"/>
      <point x="312.0" y="5.0"/>
      <point x="316.0" y="0.0"/>
      <point x="322.0" y="0.0" type="curve" smooth="yes"/>
      <point x="372.0" y="0.0"/>
      <point x="421.0" y="0.0"/>
    </contour>
    <contour>
      <point x="162.0" y="0.0" type="curve"/>
      <point x="206.0" y="176.0"/>
      <point x="250.0" y="353.0"/>
      <point x="294.0" y="529.0" type="curve" smooth="yes"/>
      <point x="296.0" y="534.0"/>
      <point x="293.0" y="540.0"/>
      <point x="286.0" y="540.0" type="curve"/>
      <point x="241.0" y="540.0"/>
      <point x="192.0" y="540.0"/>
      <point x="137.0" y="540.0" type="curve"/>
      <point x="130.0" y="512.0"/>
      <point x="122.0" y="478.0"/>
      <point x="113.0" y="442.0" type="curve" smooth="yes"/>
      <point x="77.0" y="298.0"/>
      <point x="41.0" y="155.0"/>
      <point x="5.0" y="11.0" type="curve" smooth="yes"/>
      <point x="3.0" y="5.0"/>
      <point x="7.0" y="0.0"/>
      <point x="13.0" y="0.0" type="curve" smooth="yes"/>
      <point x="63.0" y="0.0"/>
      <point x="112.0" y="0.0"/>
    </contour>
  </outline>
</glyph>
